<?xml version="1.0" encoding="utf-8"?>
<COLLADA xmlns="http://www.collada.org/2005/11/COLLADASchema" version="1.4.1" xmlns:xsi="http://www.w3.org/2001/XMLSchema-instance">
  <asset>
    <contributor>
      <author>Blender User</author>
      <authoring_tool>Blender 4.5.3 LTS commit date:2025-09-08, commit time:12:46, hash:67807e1800cc</authoring_tool>
    </contributor>
    <created>2026-03-28T10:38:01</created>
    <modified>2026-03-28T10:38:01</modified>
    <unit name="inch" meter="0.0254"/>
    <up_axis>Z_UP</up_axis>
  </asset>
  <library_images/>
  <library_geometries>
    <geometry id="caro_storehouse_crane-mesh" name="caro_storehouse_crane">
      <mesh>
        <source id="caro_storehouse_crane-mesh-positions">
          <float_array id="caro_storehouse_crane-mesh-positions-array" count="969">5.871123 -5.584222 7.652193 5.21269 -1.344804 7.774659 5.452765 -5.691677 7.635045 4.812695 -1.447543 7.758264 5.887621 -5.57062 7.164437 5.228464 -1.331796 7.308316 5.469264 -5.678074 7.147288 4.82847 -1.434535 7.29192 -2.561853 -6.360553 4.928324 -2.561853 -6.360553 5.333099 6.414548 -4.471751 4.975575 6.300541 -3.05252 4.996451 6.300541 -3.052521 5.267115 6.414554 -4.47175 5.287991 -3.251033 -3.96841 4.928324 -2.770325 -5.16304 4.928324 -2.770324 -5.163039 5.335241 -3.251033 -3.96841 5.335241 6.688605 -4.409584 5.268704 6.563281 -5.310596 5.266562 6.563281 -5.310596 4.994862 6.688605 -4.409583 4.994862 6.664034 -3.020711 4.996451 6.664034 -3.020711 5.267115 -3.617211 -3.995912 4.928324 -3.617212 -3.995912 5.335241 -2.45132 -7.238534 5.256403 -2.45132 -7.238534 4.928324 4.493381 -6.304394 5.189867 4.493381 -6.304394 4.994862 6.431528 -2.212044 5.267115 -3.73268 -3.122523 5.335241 6.430009 -2.194719 4.996451 -3.74238 -3.208926 4.928324 -1.747714 -2.314652 -1.005898 -1.747715 -2.314652 9.085282 -1.658177 -2.858075 -1.005898 -1.658177 -2.858075 9.085282 -2.332196 -2.410955 -1.005898 -2.332196 -2.410955 9.085282 -2.242658 -2.954379 -1.005898 -2.242658 -2.954379 9.085284 0.1991448 -6.222778 -0.9741564 0.199145 -6.222778 14.35306 0.2962087 -6.811876 -0.9741564 0.2962085 -6.81187 14.35306 -0.3111184 -6.306853 -0.9741564 -0.3111184 -6.306853 14.35306 -0.2140552 -6.895945 -0.9741564 -0.2140548 -6.895945 14.35306 -1.157122 -7.857585 -0.6988602 -1.615725 1.295263 13.75953 -1.21155 -7.55311 -0.8452311 -1.670153 1.599739 13.61316 -0.4146518 -7.737053 -0.7242231 -0.8732545 1.415797 13.73417 -0.46908 -7.432578 -0.870594 -0.9276828 1.720272 13.5878 0.4348078 -9.191972 12.50468 -1.375475 5.666625 13.59639 0.4301791 -9.163876 12.20697 -1.380104 5.694721 13.29868 0.8078424 -9.130507 12.50468 -1.002441 5.72809 13.59639 0.803213 -9.102411 12.20697 -1.00707 5.756181 13.29868 -0.6635752 -9.372948 12.50468 -2.473859 5.485649 13.59639 -0.6682048 -9.344852 12.20697 -2.478488 5.513739 13.29868 -0.2905411 -9.311482 12.50468 -2.100825 5.547109 13.59639 -0.2951703 -9.283392 12.20697 -2.105454 5.575205 13.29868 -0.7549613 -6.848869 8.003257 -0.4590268 -8.644918 12.77322 -0.8070905 -6.53249 8.122757 -0.5111558 -8.328539 12.89272 -0.01235634 -6.726511 8.003257 0.2835776 -8.522561 12.77322 -0.06448531 -6.410132 8.122758 0.2314482 -8.206182 12.89272 -1.36033 -4.938031 -1.099761 -1.36033 -4.938031 13.90282 -1.263266 -5.527123 -1.099761 -1.263267 -5.527123 13.90282 -1.870593 -5.022106 -1.099761 -1.870594 -5.022106 13.90282 -1.77353 -5.611198 -1.099761 -1.77353 -5.611198 13.90282 -1.104521 -6.490573 -0.9741564 -1.10452 -6.490573 13.83037 -1.007458 -7.079664 -0.9741564 -1.007458 -7.079664 13.83037 -1.614785 -6.574647 -0.9741564 -1.614785 -6.574647 13.83037 -1.517722 -7.163739 -0.9741564 -1.517721 -7.163739 13.83037 5.926495 -5.575101 12.52809 5.268058 -1.33568 12.65056 5.508132 -5.682556 12.51094 4.868063 -1.43842 12.63416 5.942994 -5.561493 12.04033 5.283833 -1.322673 12.18421 5.524631 -5.668953 12.02318 4.883837 -1.425412 12.16782 5.957203 -5.167418 -1.005898 5.957203 -5.167418 12.63875 6.046743 -5.710843 -1.005903 6.046743 -5.710843 12.63875 5.343458 -5.268544 -1.005898 5.343458 -5.268544 12.63875 5.432995 -5.811969 -1.005898 5.432996 -5.811963 12.63875 5.295939 -1.154084 -1.005898 5.295938 -1.154084 12.79417 5.385478 -1.697506 -1.005898 5.385478 -1.697506 12.79417 4.711458 -1.250387 -1.005898 4.711458 -1.250387 12.79417 4.800996 -1.79381 -1.005898 4.800996 -1.79381 12.79418 5.048314 -1.442612 2.517044 -1.787206 -2.34165 8.412836 5.118592 -1.869143 2.517044 -1.716928 -2.76818 8.412836 4.740277 -1.493367 2.141675 -2.095243 -2.392405 8.037469 4.810554 -1.919897 2.141675 -2.024965 -2.818935 8.037469 -0.8759679 5.293317 9.219261 -0.7973085 5.306278 9.228607 -0.8600487 5.196701 9.219261 -0.7813898 5.209662 9.228607 -2.562369 5.015452 9.219261 -2.649136 5.001157 9.228607 -2.54645 4.918836 9.219261 -2.633216 4.90454 9.228607 -2.32636 4.955101 9.821772 -1.894027 5.026335 10.13391 -1.508511 5.089857 10.13391 -1.013758 5.171374 9.839766 -0.9650711 5.179397 9.904285 -1.508511 5.089856 10.22359 -1.894026 5.026335 10.22359 -2.366787 4.94844 9.885612 -1.029677 5.267991 9.839766 -1.52443 5.186471 10.13391 -1.909946 5.122951 10.13391 -2.34228 5.051715 9.821772 -2.382706 5.045056 9.885612 -1.909945 5.122951 10.22359 -1.52443 5.186471 10.22359 -0.9809904 5.276012 9.904285 -1.765521 5.047509 10.13391 -1.637016 5.068683 10.13391 -1.637016 5.068683 10.22359 -1.765521 5.047507 10.22359 -1.652935 5.165298 10.13391 -1.781441 5.144124 10.13391 -1.781441 5.144124 10.22359 -1.652935 5.165298 10.22359 -1.807759 5.003318 10.10027 -1.582833 5.040378 10.10027 -1.582834 5.040378 10.25723 -1.807759 5.003319 10.25723 -1.610697 5.209489 10.10027 -1.835624 5.172428 10.10027 -1.835624 5.172428 10.25723 -1.610697 5.209489 10.25723 -1.807535 5.062322 10.23656 -1.812477 5.092322 13.41418 -1.730441 5.169935 10.23884 -1.735384 5.199934 13.41647 -1.622807 5.092873 10.23656 -1.627749 5.122871 13.41418 -1.175698 4.296903 13.40282 -1.963638 4.167075 13.40282 -1.203044 4.462865 12.99675 -1.990984 4.333038 12.99675 -1.269061 4.863535 12.82855 -2.057001 4.733707 12.82855 -1.335078 5.264203 12.99675 -2.123018 5.134375 12.99675 -1.362424 5.430167 13.40282 -2.150363 5.300337 13.40282 -1.335078 5.264203 13.80889 -2.123018 5.134375 13.80889 -1.269061 4.863533 13.97709 -2.057001 4.733705 13.97709 -1.203044 4.462865 13.80889 -1.990984 4.333039 13.80889 -1.391828 4.261291 13.40282 -1.769192 4.199113 13.40282 -1.796536 4.365076 12.99675 -1.419173 4.427254 12.99675 -1.862554 4.765746 12.82855 -1.48519 4.827924 12.82855 -1.928571 5.166415 12.99675 -1.551207 5.228591 12.99675 -1.955917 5.332377 13.40282 -1.578553 5.394554 13.40282 -1.928571 5.166413 13.80889 -1.551207 5.228592 13.80889 -1.862554 4.765744 13.97709 -1.48519 4.827922 13.97709 -1.796536 4.365077 13.80889 -1.419173 4.427254 13.80889 -1.425072 4.324415 13.40282 -1.757956 4.269567 13.40282 -1.782078 4.415966 13.04461 -1.449193 4.470816 13.04461 -1.840315 4.769411 12.89624 -1.507429 4.82426 12.89624 -1.89855 5.122853 13.04461 -1.565666 5.177701 13.04461 -1.922672 5.269253 13.40282 -1.589789 5.324102 13.40282 -1.89855 5.122853 13.76103 -1.565666 5.177701 13.76103 -1.840314 4.769409 13.9094 -1.507429 4.824257 13.9094 -1.782078 4.415966 13.76103 -1.449194 4.470816 13.76103 5.960477 -5.680424 12.26276 -2.039972 -7.154438 12.33173 5.960477 -5.680424 11.92057 -2.039971 -7.154438 11.98954 5.890152 -5.253612 12.26276 -2.110298 -6.727621 12.33173 5.890152 -5.253612 11.92057 -2.110297 -6.727621 11.98954 7.205547 -6.120199 5.266561 7.205547 -6.120199 4.994859 -1.425072 4.324415 13.40282 -1.757956 4.269567 13.40282 -1.782078 4.415966 13.04461 -1.449193 4.470816 13.04461 -1.840315 4.769411 12.89624 -1.507429 4.82426 12.89624 -1.89855 5.122853 13.04461 -1.565666 5.177701 13.04461 -1.922672 5.269253 13.40282 -1.589789 5.324102 13.40282 -1.89855 5.122853 13.76103 -1.565666 5.177701 13.76103 -1.840314 4.769409 13.9094 -1.507429 4.824257 13.9094 -1.782078 4.415966 13.76103 -1.449194 4.470816 13.76103 -1.175698 4.296903 13.40282 -1.963638 4.167075 13.40282 -1.203044 4.462865 12.99675 -1.990984 4.333038 12.99675 -1.269061 4.863535 12.82855 -2.057001 4.733707 12.82855 -1.335078 5.264203 12.99675 -2.123018 5.134375 12.99675 -1.362424 5.430167 13.40282 -2.150363 5.300337 13.40282 -1.335078 5.264203 13.80889 -2.123018 5.134375 13.80889 -1.269061 4.863533 13.97709 -2.057001 4.733705 13.97709 -1.203044 4.462865 13.80889 -1.990984 4.333039 13.80889 -1.391828 4.261291 13.40282 -1.769192 4.199113 13.40282 -1.796536 4.365076 12.99675 -1.419173 4.427254 12.99675 -1.862554 4.765746 12.82855 -1.48519 4.827924 12.82855 -1.928571 5.166415 12.99675 -1.551207 5.228591 12.99675 -1.955917 5.332377 13.40282 -1.578553 5.394554 13.40282 -1.928571 5.166413 13.80889 -1.551207 5.228592 13.80889 -1.862554 4.765744 13.97709 -1.48519 4.827922 13.97709 -1.796536 4.365077 13.80889 -1.419173 4.427254 13.80889 -1.62783 4.593842 8.116297 -1.989284 4.678245 8.116297 -2.185188 4.993512 8.116297 -2.100785 5.354964 8.116297 -1.785517 5.550869 8.116297 -1.424064 5.466466 8.116297 -1.228159 5.151198 8.116297 -1.312563 4.789745 8.116297 -2.26838 4.289032 9.280094 -1.549967 4.121277 9.280094 -2.657753 4.915648 9.280094 -2.489997 5.634058 9.280094 -1.863381 6.023435 9.280094 -1.144968 5.855678 9.280094 -0.7555946 5.229063 9.280094 -0.9233506 4.510651 9.280094 -1.566532 4.221811 9.280093 -2.209004 4.371835 9.280094 -2.557219 4.932214 9.280094 -2.407195 5.574686 9.280094 -1.846817 5.922899 9.280094 -1.204344 5.772877 9.280094 -0.8561291 5.212499 9.280094 -1.006152 4.570026 9.280094 -2.26838 4.289032 9.280094 -1.549967 4.121277 9.280094 -2.657753 4.915648 9.280094 -2.489997 5.634058 9.280094 -1.863381 6.023435 9.280094 -1.144968 5.855678 9.280094 -0.7555946 5.229063 9.280094 -0.9233506 4.510651 9.280094 -1.566532 4.221811 9.280093 -2.209004 4.371835 9.280094 -2.557219 4.932214 9.280094 -2.407195 5.574686 9.280094 -1.846817 5.922899 9.280094 -1.204344 5.772877 9.280094 -0.8561291 5.212499 9.280094 -1.006152 4.570026 9.280094 -1.706674 5.072356 8.38653</float_array>
          <technique_common>
            <accessor source="#caro_storehouse_crane-mesh-positions-array" count="323" stride="3">
              <param name="X" type="float"/>
              <param name="Y" type="float"/>
              <param name="Z" type="float"/>
            </accessor>
          </technique_common>
        </source>
        <source id="caro_storehouse_crane-mesh-normals">
          <float_array id="caro_storehouse_crane-mesh-normals-array" count="1158">-0.03224706 -0.03386425 0.9989061 -0.9882808 -0.1479552 -0.03755635 0.03099334 0.0387212 -0.9987693 0.9876166 0.1523014 0.03765392 0.07247006 -0.01008015 -0.9973196 0.006867289 0.00276333 0.9999727 0.004012703 0.01502954 -0.9998791 -0.9851828 -0.1715079 0 -0.9277096 -0.3733029 9.10004e-7 0.9967891 0.0800727 1.54668e-7 0.9904646 -0.1377676 0 -0.2212212 0.9752237 2.71563e-6 0.07302755 -0.01252788 0.9972513 0.08717787 -0.9961928 0 -0.9875869 -0.1570741 -2.3896e-6 -0.08860963 0.9940003 0.0641241 0.07489275 -0.9971916 0 0.006377041 0.003631114 0.9999731 -0.9921684 -0.1249082 0 0.00942099 0.001186013 -0.9999549 0.9620589 0.2725762 0.01204741 0.9866965 0.1625734 0 0.1625756 -0.9866962 0 -0.9866963 -0.1625747 0 -0.1625754 0.9866963 0 2.9232e-6 3.94058e-6 1 0.9866963 0.162575 0 0.1625639 -0.9866981 4.21109e-7 -0.9866961 -0.1625754 0 -0.1625758 0.9866961 0 0 0 1 -0.9872368 -0.1468446 0.06164538 -0.1533588 0.8327276 -0.5320207 0.9872369 0.1468442 -0.06164532 0.1533586 -0.8327277 0.5320205 -0.03852289 0.4273477 0.9032663 -0.9926167 -0.1212275 0.00399208 -0.01184308 0.07183569 -0.9973462 0.9926167 0.1212273 -0.003994226 0.01183754 -0.07183593 0.9973462 0.1618408 -0.9822125 -0.09521746 -0.1618421 0.9822146 0.0951929 -0.9926168 -0.121227 0.003994703 -0.01184082 0.07183623 -0.9973462 0.9926167 0.1212278 -0.003996253 0.01183754 -0.07183605 0.9973462 0.161827 -0.9822152 -0.09521257 -0.1618422 0.9822131 0.09520894 -0.986696 -0.1625767 5.45898e-7 -0.1518921 0.9218534 0.3565321 0.986696 0.162576 -4.43543e-7 0.1518921 -0.9218534 -0.3565322 0.0567764 -0.3445757 0.9370402 0.986696 0.1625765 0 0.1625745 -0.9866964 0 -0.9866964 -0.1625744 0 -0.1625767 0.9866959 0 -7.72197e-7 -3.15219e-6 1 0.9866963 0.1625751 0 0.1625756 -0.9866962 0 -0.9866962 -0.1625754 0 -0.1625747 0.9866963 0 -0.03225493 -0.03386449 0.9989058 -0.9882809 -0.147955 -0.03755521 0.0309897 0.03872102 -0.9987695 0.9876164 0.1523016 0.03765654 0.9866962 0.1625755 0 0.1625764 -0.986696 0 -0.9866965 -0.1625735 0 -0.1625763 0.9866961 0 0.9866961 0.1625761 0 0.1625759 -0.9866961 0 -0.9866961 -0.1625759 0 -0.1625751 0.9866962 0 0.6414706 0.1056922 0.7598322 0.1437746 -0.9894843 0.0158056 -0.6414711 -0.1056926 -0.7598314 -0.1437745 0.9894843 -0.01580536 -5.75836e-6 -1.27147e-6 1 0.1148918 0.01893007 -0.9931976 0.1625744 -0.9866963 2.16482e-6 -0.1042847 -0.01718199 -0.9943991 -0.1625803 0.9866953 4.68198e-6 0.92532 0.1524656 -0.3471847 0.9512528 0.1567379 0.2656151 -0.9126233 -0.150382 0.3801369 -0.5687445 -0.09371173 0.8171585 -7.01085e-6 0 1 0.4948766 0.08154016 0.8651292 -0.9569971 -0.1576815 -0.2435022 -0.4992539 -0.08226102 -0.862542 7.01092e-6 -9.61002e-6 -1 0.572502 0.09432303 -0.8144598 -0.1625561 0.9866994 -8.65909e-6 -0.1625605 0.9866987 -3.50951e-5 -0.1625714 0.9866968 0 -0.1625707 0.9866969 2.54365e-6 0.1625809 -0.9866952 2.341e-6 0.1625718 -0.9866967 0 0.16258 -0.9866954 2.15043e-6 0.1625741 -0.9866964 0 0.1625798 -0.9866955 0 0.4630185 0.8863486 2.39083e-6 -0.1625792 0.9866955 0 -0.4629969 -0.88636 -2.17461e-5 0 -1.19049e-6 -1 0.5595738 0.09220409 0.8236357 -7.01079e-6 -9.60979e-6 1 -0.5595784 -0.09220099 -0.8236329 0.1625707 -0.986697 -6.66335e-6 -0.1625766 0.9866959 0 0 -5.49027e-6 -1 -4.57677e-6 0 1 0.5595892 0.0921967 -0.823626 -0.5595768 -0.09219175 0.8236351 0.7229044 -0.6909481 -5.4366e-6 -0.7228757 0.6909781 5.43679e-6 -0.8128342 0.5824559 -0.006763398 0.5820304 0.813139 -0.006771266 0.1631621 -0.9865529 0.009567618 -0.9866962 -0.1625751 -3.61473e-7 0.9866961 0.1625757 0 0.8773205 0.4620312 0.1297533 -0.8773181 -0.4620355 -0.129755 -0.9791728 0.1561496 0.1297612 0.9493419 0.0249148 -0.3132561 0.9071422 0.2809818 0.3132767 -0.9071582 -0.2809628 -0.3132475 -0.9493378 -0.02491313 0.3132684 0.907146 0.2809808 -0.3132665 0.1625788 -0.9866956 9.0361e-7 0.1149531 -0.697695 -0.7071121 0.1149556 -0.6977037 -0.7071031 3.01434e-6 9.91904e-6 -1 4.72525e-6 -2.54136e-6 -1 -0.11496 0.6976982 -0.7071078 -0.1149611 0.6976971 -0.7071087 -0.1625827 0.9866949 8.15293e-6 -0.162582 0.9866951 -4.31261e-6 -0.1149597 0.6976931 0.7071129 -0.1149584 0.6977034 0.707103 4.01997e-6 -5.77069e-6 1 6.3149e-7 4.94924e-6 1 0.1149536 -0.697705 0.7071021 0.1149505 -0.6976969 0.7071107 -0.8773201 -0.4620307 0.1297583 0.9791722 -0.1561558 -0.1297587 -0.9791711 0.1561596 -0.1297621 0.9791735 -0.1561495 0.1297569 0.8773159 0.4620388 -0.1297584 -0.9071416 -0.280984 0.3132765 -0.9493356 -0.02490788 -0.3132755 0.9493393 0.02491354 0.313264 0.1811908 -0.983448 0 -0.008367776 -0.00137633 -0.9999641 -0.1811913 0.9834479 -2.74071e-6 0.008366644 0.001378536 0.9999641 0.9866965 0.1625734 0 -0.9866957 -0.1625787 -1.35222e-6 0.7834183 0.6214947 0 0.1150388 -0.9933611 0 -9.27266e-7 2.13261e-6 -1 -9.63001e-4 -7.6639e-4 0.9999994 -0.03224939 -0.03386408 0.9989061 -0.9882807 -0.1479554 -0.03755688 0.03099894 0.03872096 -0.9987692 0.9876167 0.1523007 0.03765469 0.009735584 -0.02125883 -0.9997267 0.005077838 8.8399e-4 -0.9999867 0.004012465 0.0150299 0.999879 0.006867289 0.00276333 -0.9999727 -0.985183 -0.1715071 1.13172e-6 -0.9277097 -0.3733025 0 0.9967889 0.0800752 -1.68875e-5 0.9904648 -0.1377666 -4.78539e-7 -0.2212224 0.9752235 3.0982e-6 0.005210578 -8.8154e-4 0.9999861 0.01002293 -0.02375978 0.9996675 0.08717733 -0.9961929 -2.41411e-6 -0.9900634 -0.1308939 0.05139255 -0.09575539 0.9741582 -0.2045646 0.07489275 -0.9971916 0 0.007240474 -0.001128375 0.9999732 -0.9921683 -0.1249088 0 0.009587705 -0.0199691 -0.9997547 0.9610647 0.2763237 5.23435e-7 0.9866963 0.1625749 0 0.1625763 -0.986696 0 -0.1625754 0.9866962 0 -1.0962e-6 0 1 0.9866961 0.1625758 0 0.1625748 -0.9866963 0 -0.986696 -0.1625762 0 -0.1625757 0.9866962 0 1.5444e-6 0 1 -0.9872371 -0.1468429 0.06164503 -0.1533567 0.8327279 -0.5320206 0.9872369 0.1468445 -0.06164544 0.1533591 -0.8327276 0.5320204 -0.03852641 0.4273483 0.9032658 -0.9926167 -0.1212273 0.003993272 -0.01183217 0.07183623 -0.9973463 0.9926167 0.1212279 -0.003993451 0.01183652 -0.07183593 0.9973462 0.1618395 -0.9822129 -0.09521615 -0.1618255 0.9822158 0.09520918 -0.9926167 -0.1212285 0.003995001 -0.01183754 0.07183605 -0.9973462 0.9926167 0.1212276 -0.003992855 0.01184058 -0.07183581 0.9973462 0.1618413 -0.9822148 -0.09519243 -0.161828 0.982217 0.09519267 -0.986696 -0.1625762 6.14136e-7 -0.1518913 0.9218534 0.3565326 0.9866958 0.1625771 -2.72949e-7 0.1518914 -0.9218536 -0.356532 0.05677551 -0.3445757 0.9370402 0.9866961 0.1625759 0 0.1625748 -0.9866963 0 -0.986696 -0.1625768 0 -0.1625756 0.9866962 0 -6.1776e-6 -5.9962e-7 1 0.9866963 0.1625747 0 0.1625757 -0.9866962 0 -0.9866961 -0.1625758 0 -0.1625745 0.9866964 0 -7.72197e-7 0 1 -0.03224712 -0.03386527 0.9989061 -0.9882807 -0.1479562 -0.03755605 0.03099888 0.03872138 -0.9987692 0.9876164 0.1523018 0.0376572 0.9866956 0.162579 0 0.1625676 -0.9866975 4.14407e-7 -0.9866963 -0.1625751 0 -0.1625763 0.9866961 0 0.9866954 0.16258 0 0.1625755 -0.9866962 0 -0.9866964 -0.1625736 0 -0.1625757 0.9866961 0 0.6414713 0.1056927 0.7598314 0.1437744 -0.9894843 0.01580655 -0.6414706 -0.1056939 -0.7598318 -0.1437752 0.9894842 -0.01580739 2.39932e-6 0 1 5.75842e-6 0 1 3.43312e-6 0 1 3.83902e-6 0 1 3.43315e-6 9.86566e-6 1 0.1148933 0.01892942 -0.9931975 0.1625701 -0.9866971 0 -0.1042619 -0.01718336 -0.9944015 -0.1625751 0.9866963 -2.6286e-6 0.9253202 0.1524611 -0.3471863 0.9512536 0.1567303 0.2656167 -0.9126255 -0.1503698 0.3801364 -0.5687485 -0.09371864 0.8171548 9.34783e-6 0 1 0.4948841 0.08154207 0.8651246 -0.9569986 -0.1576812 -0.2434962 -0.4992536 -0.08226197 -0.8625421 0 -9.60973e-6 -1 0.5724917 0.09433126 -0.8144662 -0.1625484 0.9867007 -9.44894e-6 -0.1625748 0.9866963 8.96013e-6 -0.1625738 0.9866964 0 -0.162576 0.9866961 0 0.1625812 -0.9866952 0 0.1625689 -0.9866972 0 0.1625692 -0.9866972 -1.02071e-5 0.1625729 -0.9866966 0 0.1625734 -0.9866966 3.19657e-6 0.4630206 0.8863475 0 -0.1625733 0.9866966 0 -0.4630185 -0.8863486 0 -2.10324e-5 -1.1905e-6 -1 0.5595538 0.09220755 0.8236488 9.34784e-6 -1.1905e-6 1 -0.5595741 -0.09220069 -0.8236359 0.1625708 -0.986697 6.66337e-6 -0.1625791 0.9866955 0 3.05118e-6 -6.8015e-7 -1 6.10234e-6 0 1 0.5595555 0.09219884 -0.8236486 -0.559557 -0.09219986 0.8236476 0.7229006 -0.6909521 0 -0.7228937 0.6909593 -3.10602e-6 -0.8128325 0.5824584 -0.006762981 0.5820336 0.8131366 -0.006771206 0.1631516 -0.9865547 0.009567201 -0.986696 -0.1625768 -3.27253e-7 -0.986696 -0.1625761 -9.03679e-7 -0.9866958 -0.1625771 -2.55602e-7 -0.9866966 -0.1625729 2.18166e-7 -0.9866957 -0.1625784 8.72681e-7 0.9866964 0.1625737 0 0.9866961 0.1625754 0 0.9866962 0.1625753 0 0.9866955 0.1625794 0 0.9866962 0.1625756 2.18169e-6 0.8773113 0.4620461 0.1297626 -0.8773184 -0.4620341 -0.1297582 -0.9791713 0.1561596 0.129761 0.9493392 0.02491432 -0.3132641 0.9071462 0.2809796 0.3132672 -0.9071445 -0.2809822 -0.3132701 -0.9493383 -0.02491128 0.3132675 0.9071465 0.2809796 -0.3132663 0.1149531 -0.6976932 0.7071138 0.162575 -0.9866962 2.25392e-6 0.1149572 -0.6977062 0.7071004 3.37824e-6 5.38054e-6 1 1.13695e-5 -8.54314e-6 1 -0.114951 0.6977071 0.7071005 -0.1149473 0.6976947 0.7071133 -0.1625833 0.9866948 -4.72336e-6 -0.1625841 0.9866947 1.33281e-5 -0.1149626 0.6976989 -0.7071067 -0.1149618 0.6976997 -0.7071061 -1.40036e-6 0 -1 0.1149579 -0.6976988 -0.7071076 0.1149579 -0.6976991 -0.7071072 -0.877312 -0.4620462 0.1297587 0.9791743 -0.1561461 -0.1297538 -0.979173 0.1561496 -0.12976 0.9791724 -0.1561552 0.129758 0.8773113 0.4620471 -0.1297598 -0.9071444 -0.2809796 0.3132721 -0.9493455 -0.02491813 -0.3132448 0.9493376 0.02491289 0.3132689 0.1811921 -0.9834478 -5.79359e-7 -0.00836575 -0.001380741 -0.9999641 -0.1811903 0.9834482 2.7407e-6 0.008366584 0.001378536 0.9999641 0.9866958 0.1625776 0 -0.9866958 -0.1625771 -2.81874e-6 0.7834187 0.6214943 0 0.115038 -0.9933611 0 0.01703095 -0.08488309 0.9962454 0.1149575 -0.697699 0.7071074 0.1625753 -0.9866962 1.05963e-5 0.162575 -0.9866963 -9.04586e-6 -3.59104e-6 -1.2937e-6 1 -7.5983e-7 -2.60807e-6 1 -0.1149594 0.697691 0.707115 -0.1625756 0.9866961 1.08835e-6 -0.1149659 0.6977065 0.7070987 -0.1149638 0.6977085 -0.7070971 -0.1149581 0.6976934 -0.707113 2.06761e-6 3.28559e-7 -1 9.1539e-6 1.56073e-6 -1 0.1149585 -0.6976921 -0.7071141 0.1149578 -0.6977087 -0.7070978 0.1149592 -0.6976997 0.7071065 -0.1625751 0.9866963 -2.75182e-6 0.1625765 -0.986696 2.73128e-6 -2.82113e-6 1.3143e-6 -1 0.1625807 -0.9866952 1.39645e-6 0.1503431 -0.9124518 -0.3805639 -0.5388924 -0.751509 -0.3805642 0.1503427 -0.9124519 -0.3805635 -0.5388798 -0.751518 -0.3805644 -0.9124519 -0.150341 -0.3805641 -0.9124494 -0.1503576 -0.3805636 -0.7515087 0.5388938 -0.380563 -0.7515197 0.5388785 -0.380563 -0.150343 0.9124518 -0.3805637 0.538905 0.7515004 -0.3805635 0.5388919 0.7515094 -0.3805643 0.9124543 0.150328 -0.3805639 0.9124516 0.1503424 -0.3805645 0.7515006 -0.5389049 -0.3805634 0.7515082 -0.5388938 -0.380564 -0.1503443 0.9124515 -0.3805638 1.91944e-6 -9.11736e-7 1 1.15169e-5 0 1 1.91947e-6 0 1 -6.86625e-6 8.60501e-6 1 -0.710124 -0.1170057 0.6942865 -0.4193977 -0.584869 0.6942866 1.3533e-7 0 1 -0.117006 0.7101233 0.6942871 -0.5848692 0.4193972 0.6942867 0.4193987 0.5848684 0.6942865 0.5848688 -0.4193985 0.6942862 0.7101242 0.1170046 0.6942864 0.1170065 -0.710124 0.6942862</float_array>
          <technique_common>
            <accessor source="#caro_storehouse_crane-mesh-normals-array" count="386" stride="3">
              <param name="X" type="float"/>
              <param name="Y" type="float"/>
              <param name="Z" type="float"/>
            </accessor>
          </technique_common>
        </source>
        <source id="caro_storehouse_crane-mesh-map-0">
          <float_array id="caro_storehouse_crane-mesh-map-0-array" count="2370">0.2826511 0.9477137 0.2202448 0.9328024 0.2833022 0.9328024 0.283258 0.9009611 0.2202429 0.8847742 0.2833022 0.8840311 0.2202421 0.9328024 0.2826511 0.917891 0.2833022 0.9328023 0.2832599 0.9017042 0.2202728 0.917891 0.2202286 0.9009611 0.2685548 0.8853664 0.2730848 0.8850278 0.2691327 0.8969209 0.1469445 0.8334848 0.2671822 0.8510371 0.1409321 0.8502185 0.1487495 0.8791773 0.2697895 0.8660724 0.2685548 0.8853664 0.1318521 0.9076971 0.1515098 0.9131944 0.1318521 0.9131907 0.1227867 0.8622392 0.1436184 0.867762 0.1227867 0.867762 0.1284765 0.9196982 0.1515098 0.9236552 0.1284765 0.9233718 0.1289021 0.8813686 0.1436184 0.877681 0.1436184 0.8813686 0.1385894 0.9011701 0.1432506 0.8973869 0.1436184 0.9011701 0.2681406 0.8201932 0.2714663 0.8322204 0.2669581 0.8317136 0.1377156 0.8937133 0.1436184 0.8973869 0.1377156 0.8973869 0.1293682 0.8721283 0.1422588 0.8776519 0.1293682 0.8776509 0.2730498 0.9457425 0.1369943 0.9401345 0.2730848 0.9421108 0.1436184 0.88873 0.1370356 0.8937133 0.1370356 0.88873 0.2705116 0.8622392 0.1343989 0.8622392 0.1409321 0.8502185 0.1318521 0.9131907 0.1175402 0.9087405 0.1318521 0.9076971 0.1495097 0.8956622 0.2627514 0.9076719 0.1493886 0.9076718 0.143343 0.88873 0.1297331 0.8850564 0.1436184 0.8850563 0.3134449 0.8651881 0.1943677 0.888305 0.1943677 0.8651883 0.3134449 0.8403248 0.1943677 0.8651881 0.1943677 0.8403248 0.1943677 0.9114218 0.3134449 0.888305 0.3134449 0.9114217 0.3134449 0.8154613 0.1943677 0.8403248 0.1943677 0.8154614 0.3134449 0.9114218 0.3008722 0.9345386 0.3008722 0.9114218 0.1569225 0.8070579 0.3726027 0.796578 0.3726026 0.8070578 0.3726025 0.868546 0.1569218 0.8776235 0.1569218 0.868546 0.1569225 0.8175394 0.3726027 0.8070595 0.3726027 0.8175394 0.3726025 0.8594669 0.1569219 0.8685446 0.1569219 0.859467 0.1554279 0.8475829 0.1673 0.8566604 0.1554279 0.8566604 0.1592147 0.9596902 0.3726097 0.9537025 0.372071 0.9596902 0.3726027 0.7701564 0.1594839 0.7833651 0.1597427 0.7701563 0.1592147 0.9596907 0.3726096 0.9656785 0.1597535 0.9656785 0.3726028 0.796576 0.1594838 0.7833673 0.372344 0.7833673 0.1672991 0.8957827 0.1523331 0.9017891 0.1523331 0.8957827 0.1501049 0.9761793 0.3726019 0.9709296 0.3725878 0.9761793 0.1501188 0.9205769 0.3726022 0.9139407 0.3726022 0.9205769 0.3726021 0.9709287 0.1501047 0.9656792 0.372588 0.9656791 0.1509156 0.9272074 0.3728672 0.9338595 0.1509156 0.9338595 0.158333 0.8227612 0.1658679 0.8279989 0.158333 0.8279989 0.1658679 0.8332255 0.158333 0.8279879 0.1658679 0.8279879 0.1501044 0.9814296 0.3726026 0.97618 0.3725884 0.9814296 0.3726018 0.920578 0.1501191 0.9272142 0.1501191 0.920578 0.1501045 0.9814304 0.3726024 0.98668 0.1501187 0.98668 0.3728672 0.9404967 0.1509156 0.9338446 0.3728672 0.9338446 0.1597732 0.9079383 0.1673082 0.9027006 0.1673082 0.9079383 0.1658679 0.8175346 0.158333 0.8227723 0.158333 0.8175346 0.169497 0.9866809 0.2709667 0.9926872 0.1694439 0.9926872 0.3726115 0.9404903 0.2710887 0.9537011 0.2710887 0.9404903 0.271089 0.9926872 0.3725584 0.9866809 0.3726115 0.9926872 0.2710725 0.9537011 0.1695496 0.9404903 0.2710725 0.9404903 0.1672991 0.9139397 0.1523331 0.9079332 0.1672991 0.9079332 0.1658762 0.8280208 0.3726034 0.817541 0.3726034 0.8280208 0.3726032 0.886704 0.1658756 0.8957815 0.1658756 0.886704 0.1658762 0.8385024 0.3726035 0.8280225 0.3726035 0.8385024 0.1658757 0.877625 0.3726032 0.8867024 0.1658757 0.8867025 0.1576684 0.9495674 0.1695405 0.94049 0.1695405 0.9495674 0.1673171 0.8489839 0.3726035 0.838504 0.3726035 0.8489839 0.3726032 0.9048619 0.1673167 0.9139395 0.1673167 0.904862 0.1673171 0.8594654 0.3726035 0.8489856 0.3726037 0.8594654 0.1673164 0.895783 0.3726035 0.9048604 0.1673164 0.9048605 0.1554279 0.8385039 0.1673 0.8475815 0.1554279 0.8475815 0.3416416 0.9448251 0.2665675 0.9338796 0.3424248 0.9338796 0.3423697 0.921456 0.2665683 0.909578 0.3424248 0.9090326 0.2665835 0.9557675 0.3416459 0.9448251 0.3424248 0.9557675 0.3423728 0.9220015 0.2666026 0.9338795 0.2665481 0.921456 0.1805477 0.8809943 0.3424245 0.8950134 0.1805472 0.8950135 0.1805348 0.822799 0.3424248 0.8069655 0.3424248 0.822799 0.1805475 0.9090326 0.3424243 0.8950135 0.3424248 0.9090326 0.3424248 0.7911319 0.1805348 0.8069655 0.1805348 0.7911319 0.3424245 0.8669752 0.1778022 0.852956 0.3424248 0.852956 0.1777892 0.8378775 0.3424248 0.822799 0.3424248 0.8378775 0.1778016 0.8669752 0.3424248 0.8809943 0.1778021 0.8809943 0.1777893 0.852956 0.3424248 0.8378775 0.3424248 0.8529559 0.2141761 0.8842675 0.3210096 0.8955533 0.2141761 0.8955534 0.3210097 0.8460332 0.2141968 0.8332872 0.3210085 0.8332872 0.2141761 0.9068393 0.3210096 0.8955534 0.3210096 0.9068392 0.3210097 0.8460332 0.2141991 0.8587792 0.2142001 0.8460332 0.6480681 0.2363424 0.6319183 0.2385181 0.6328195 0.2363424 0.5705029 0.3426501 0.5719322 0.3428595 0.5713858 0.3431836 0.6353691 0.253983 0.6339324 0.2385702 0.6358943 0.239143 0.5715033 0.3796611 0.5714249 0.3795719 0.5715076 0.3795281 0.6393278 0.253634 0.6378323 0.2385702 0.639666 0.2388513 0.5715076 0.3795281 0.5714593 0.3762156 0.5715524 0.3762164 0.5719322 0.3428595 0.5756364 0.3569257 0.5734788 0.3569879 0.5715033 0.3796611 0.5715245 0.3760929 0.5714658 0.3797825 0.5715389 0.3736965 0.5715245 0.3760929 0.5714733 0.3760944 0.5717967 0.37307 0.5739619 0.3723784 0.5720402 0.3736433 0.5724562 0.3718973 0.5756364 0.3569257 0.5739619 0.3723784 0.5713858 0.3431836 0.5694621 0.3565669 0.5705029 0.3426501 0.5712748 0.3712453 0.5694621 0.3565669 0.5717728 0.3566156 0.5715448 0.3735888 0.5715149 0.3738179 0.5715265 0.3736101 0.5715524 0.3762164 0.5715149 0.3738179 0.5715813 0.3738129 0.6338802 0.2385702 0.6324434 0.253983 0.6319183 0.239143 0.6462025 0.2520745 0.6338533 0.2503233 0.6462873 0.2503233 0.6377856 0.2539302 0.6347754 0.2560029 0.6347754 0.2539302 0.6463253 0.2484781 0.6326507 0.2502712 0.6328893 0.2484091 0.6377802 0.2385702 0.6362846 0.253634 0.6359465 0.2388513 0.6326507 0.2464949 0.6463253 0.248288 0.6328893 0.2483569 0.6326507 0.2539302 0.6347233 0.2569404 0.6326507 0.2569404 0.6338454 0.2538203 0.6462026 0.2521266 0.6462793 0.2538781 0.6347233 0.2569925 0.6326507 0.2600026 0.6326507 0.2569925 0.2086639 0.3406621 0.2095863 0.3481179 0.2113614 0.3318381 0.6377856 0.2581276 0.6347754 0.256055 0.6377856 0.256055 0.2370969 0.3086466 0.2434301 0.2498815 0.2370969 0.2654978 0.5714172 0.3729392 0.5694621 0.3715116 0.5712748 0.3712453 0.2086639 0.3406621 0.2116127 0.3320311 0.2076883 0.3451285 0.5715389 0.3736965 0.5715572 0.3735963 0.5715453 0.3737035 0.2370969 0.3086466 0.2159628 0.3187162 0.2272596 0.3168081 0.2095863 0.3481179 0.2156429 0.2960496 0.2113614 0.3318381 0.2434301 0.2498815 0.1941288 0.3904731 0.2116127 0.3320311 0.2156429 0.2960496 0.2116127 0.3320311 0.2113614 0.3318381 0.2159628 0.3187162 0.1941288 0.3904731 0.2272596 0.3168081 0.2062992 0.3499407 0.1941288 0.3904731 0.2095863 0.3481179 0.2370969 0.2654978 0.2156429 0.2960496 0.2125289 0.292536 0.2076883 0.3451285 0.1941288 0.3904731 0.2026627 0.3660758 0.2125289 0.292536 0.2159628 0.3187162 0.2171553 0.3153974 0.01521432 0.402492 0.01629352 0.2057494 0.01522451 0.2065999 0.01629352 0.2057494 0.01741564 0.402492 0.01736265 0.2065999 0.01736265 0.2065999 0.01521432 0.402492 0.01522451 0.2065999 0.9032656 0.3799666 0.8522711 0.4010893 0.8311486 0.3500947 0.9032656 0.3077552 0.8522711 0.3288779 0.8311485 0.2778834 0.7635769 0.2644517 0.7305052 0.2852905 0.7609179 0.2577313 0.8224969 0.4246581 0.7998812 0.3922328 0.8292866 0.4217888 0.7379425 0.4600496 0.7600784 0.4925801 0.7312451 0.4629253 0.8242384 0.2887164 0.830069 0.3273248 0.8233446 0.3243646 0.7371668 0.2883142 0.7294973 0.3264598 0.7305052 0.2852905 0.8230152 0.4607215 0.8292866 0.4217888 0.8298584 0.4633879 0.7363939 0.4241664 0.7312451 0.4629253 0.729497 0.4215609 0.8242384 0.2887164 0.8020942 0.2567607 0.8310542 0.286001 0.7895042 0.4142283 0.8224969 0.4246581 0.8064463 0.4303656 0.8064463 0.4303656 0.8230152 0.4607215 0.8075793 0.4538117 0.8075793 0.4538117 0.7984219 0.4864597 0.7929596 0.4708442 0.7984219 0.4864597 0.7706969 0.4709212 0.7929596 0.4708442 0.7629824 0.4858585 0.7540354 0.4539951 0.7706969 0.4709212 0.7379425 0.4600496 0.7515382 0.430963 0.7540354 0.4539951 0.7363939 0.4241664 0.7666665 0.4145856 0.7515382 0.430963 0.7612029 0.3987498 0.7895042 0.4142283 0.7666665 0.4145856 0.7612029 0.3987498 0.7998812 0.3922328 0.797026 0.3990359 0.7973961 0.3492718 0.830069 0.3273248 0.800127 0.3561001 0.7984219 0.4864597 0.7600784 0.4925801 0.7629824 0.4858585 0.7614307 0.3490381 0.800127 0.3561001 0.7586018 0.3558175 0.7993776 0.2635752 0.7609179 0.2577313 0.8020942 0.2567607 0.7612029 0.3987498 0.729497 0.4215609 0.758356 0.3919503 0.8230152 0.4607215 0.8012863 0.4932394 0.7984219 0.4864597 0.7614307 0.3490381 0.7294973 0.3264598 0.7363067 0.3237249 0.2675097 0.9178326 0.2042883 0.9063804 0.2675322 0.9063804 0.2674687 0.894928 0.2042883 0.8804529 0.2675322 0.8804529 0.2042883 0.9063804 0.2675097 0.894928 0.2675322 0.9063803 0.2674687 0.8659778 0.2042883 0.8804529 0.2042248 0.8659778 0.2641695 0.9292853 0.2675322 0.9178326 0.2675322 0.9292852 0.2641695 0.9178326 0.2608067 0.9292852 0.2608067 0.9178326 0.1436184 0.8813686 0.1436184 0.877681 0.1436184 0.8813686 0.1436184 0.8813686 0.1175402 0.9087405 0.1175402 0.9131931 0.1436184 0.8813686 0.1436184 0.8813686 0.2627514 0.9076719 0.1436184 0.877681 0.1175402 0.9087405 0.1436184 0.877681 0.2826511 0.9477137 0.2196223 0.9470591 0.2202448 0.9328024 0.283258 0.9009611 0.2202005 0.9009611 0.2202429 0.8847742 0.2202421 0.9328024 0.2196195 0.9185457 0.2826511 0.917891 0.2832599 0.9017042 0.2833022 0.917891 0.2202728 0.917891 0.2691327 0.8969209 0.1495097 0.8956622 0.2685548 0.8853664 0.1495097 0.8956622 0.1487495 0.8791773 0.2685548 0.8853664 0.1469445 0.8334848 0.2669581 0.8317136 0.2671822 0.8510371 0.1487495 0.8791773 0.1436184 0.8622392 0.2697895 0.8660724 0.1318521 0.9076971 0.1515098 0.9076719 0.1515098 0.9131944 0.1227867 0.8622392 0.1436184 0.8622392 0.1436184 0.867762 0.1284765 0.9196982 0.1515098 0.9194148 0.1515098 0.9236552 0.1289021 0.8813686 0.1289021 0.8776519 0.1436184 0.877681 0.1385894 0.9011701 0.1388425 0.8973869 0.1432506 0.8973869 0.1469445 0.8334848 0.1485669 0.8170434 0.2669581 0.8317136 0.1485669 0.8170434 0.2681406 0.8201932 0.2669581 0.8317136 0.1377156 0.8937133 0.1436184 0.8937133 0.1436184 0.8973869 0.1293682 0.8721283 0.1436184 0.8721265 0.1422588 0.8776519 0.2730498 0.9457425 0.1366466 0.9457425 0.1369943 0.9401345 0.1436184 0.88873 0.1436184 0.8937133 0.1370356 0.8937133 0.1349925 0.8502923 0.1409321 0.8502185 0.1343989 0.8622392 0.1409321 0.8502185 0.2671822 0.8510371 0.2705116 0.8622392 0.2671822 0.8510371 0.2730848 0.8510249 0.2705116 0.8622392 0.1318521 0.9131907 0.1175402 0.9131931 0.1175402 0.9087405 0.1495097 0.8956622 0.2691327 0.8969209 0.2627514 0.9076719 0.143343 0.88873 0.1297329 0.88873 0.1297331 0.8850564 0.3134449 0.8651881 0.3134449 0.8883049 0.1943677 0.888305 0.3134449 0.8403248 0.3134449 0.865188 0.1943677 0.8651881 0.1943677 0.9114218 0.1943677 0.888305 0.3134449 0.888305 0.3134449 0.8154613 0.3134449 0.8403246 0.1943677 0.8403248 0.3134449 0.9114218 0.3134449 0.9345386 0.3008722 0.9345386 0.1569225 0.8070579 0.1569225 0.796578 0.3726027 0.796578 0.3726025 0.868546 0.3726025 0.8776235 0.1569218 0.8776235 0.1569225 0.8175394 0.1569225 0.8070595 0.3726027 0.8070595 0.3726025 0.8594669 0.3726025 0.8685445 0.1569219 0.8685446 0.1554279 0.8475829 0.1673 0.8475829 0.1673 0.8566604 0.1592147 0.9596902 0.1597535 0.9537025 0.3726097 0.9537025 0.3726027 0.7701564 0.3723438 0.7833653 0.1594839 0.7833651 0.1592147 0.9596907 0.3720709 0.9596907 0.3726096 0.9656785 0.3726028 0.796576 0.1597427 0.796576 0.1594838 0.7833673 0.1672991 0.8957827 0.1672991 0.9017891 0.1523331 0.9017891 0.1501049 0.9761793 0.1501191 0.9709297 0.3726019 0.9709296 0.1501188 0.9205769 0.1501188 0.9139407 0.3726022 0.9139407 0.3726021 0.9709287 0.1501189 0.9709287 0.1501047 0.9656792 0.1509156 0.9272074 0.3728672 0.9272073 0.3728672 0.9338595 0.158333 0.8227612 0.1658679 0.8227612 0.1658679 0.8279989 0.1658679 0.8332255 0.158333 0.8332255 0.158333 0.8279879 0.1501044 0.9814296 0.1501185 0.97618 0.3726026 0.97618 0.3726018 0.920578 0.3726018 0.9272142 0.1501191 0.9272142 0.1501045 0.9814304 0.3725882 0.9814304 0.3726024 0.98668 0.3728672 0.9404967 0.1509156 0.9404967 0.1509156 0.9338446 0.1597732 0.9079383 0.1597732 0.9027006 0.1673082 0.9027006 0.1658679 0.8175346 0.1658679 0.8227723 0.158333 0.8227723 0.169497 0.9866809 0.2710199 0.9866809 0.2709667 0.9926872 0.3726115 0.9404903 0.3726115 0.9537011 0.2710887 0.9537011 0.271089 0.9926872 0.2710359 0.9866809 0.3725584 0.9866809 0.2710725 0.9537011 0.1695495 0.9537011 0.1695496 0.9404903 0.1672991 0.9139397 0.1523331 0.9139397 0.1523331 0.9079332 0.1658762 0.8280208 0.1658762 0.817541 0.3726034 0.817541 0.3726032 0.886704 0.3726032 0.8957814 0.1658756 0.8957815 0.1658762 0.8385024 0.1658762 0.8280225 0.3726035 0.8280225 0.1658757 0.877625 0.3726032 0.8776249 0.3726032 0.8867024 0.1576684 0.9495674 0.1576684 0.94049 0.1695405 0.94049 0.1673171 0.8489839 0.1673172 0.838504 0.3726035 0.838504 0.3726032 0.9048619 0.3726032 0.9139394 0.1673167 0.9139395 0.1673171 0.8594654 0.1673171 0.8489856 0.3726035 0.8489856 0.1673164 0.895783 0.3726035 0.8957829 0.3726035 0.9048604 0.1554279 0.8385039 0.1673 0.8385039 0.1673 0.8475815 0.3416416 0.9448251 0.2658186 0.9443446 0.2665675 0.9338796 0.3423697 0.921456 0.2665155 0.921456 0.2665683 0.909578 0.2665835 0.9557675 0.2658387 0.9453055 0.3416459 0.9448251 0.3423728 0.9220015 0.3424248 0.9338796 0.2666026 0.9338795 0.1805477 0.8809943 0.3424248 0.8809943 0.3424245 0.8950134 0.1805348 0.822799 0.1805348 0.8069655 0.3424248 0.8069655 0.1805475 0.9090326 0.1805469 0.8950135 0.3424243 0.8950135 0.3424248 0.7911319 0.3424248 0.8069655 0.1805348 0.8069655 0.3424245 0.8669752 0.1778017 0.8669752 0.1778022 0.852956 0.1777892 0.8378775 0.1777892 0.822799 0.3424248 0.822799 0.1778016 0.8669752 0.3424243 0.8669752 0.3424248 0.8809943 0.1777893 0.852956 0.1777893 0.8378775 0.3424248 0.8378775 0.2141761 0.8842675 0.3210096 0.8842675 0.3210096 0.8955533 0.3210097 0.8460332 0.2141979 0.8460332 0.2141968 0.8332872 0.2141761 0.9068393 0.2141761 0.8955534 0.3210096 0.8955534 0.3210097 0.8460332 0.3210085 0.8587792 0.2141991 0.8587792 0.6471238 0.259938 0.6449482 0.2437881 0.6471238 0.2446893 0.6480681 0.229659 0.6319183 0.2318347 0.6328195 0.229659 0.6480681 0.2362903 0.6319183 0.2341146 0.6489693 0.2341146 0.6427204 0.2275861 0.644896 0.243736 0.6427204 0.2428348 0.6480681 0.2296069 0.6319183 0.2274312 0.6489693 0.2274312 0.6480681 0.2340625 0.6319183 0.2318868 0.6489694 0.2318868 0.6471238 0.2275861 0.6449482 0.243736 0.6449482 0.2266849 0.5705029 0.3426501 0.5725553 0.3423274 0.5719322 0.3428595 0.6353691 0.253983 0.6339324 0.2549877 0.6339324 0.2385702 0.5715033 0.3796611 0.5714658 0.3797825 0.5714249 0.3795719 0.6393278 0.253634 0.6378323 0.2547688 0.6378323 0.2385702 0.5715076 0.3795281 0.5714249 0.3795719 0.5714593 0.3762156 0.5719322 0.3428595 0.5725553 0.3423274 0.5756364 0.3569257 0.5715033 0.3796611 0.5714733 0.3760944 0.5715245 0.3760929 0.5715389 0.3736965 0.5715453 0.3737035 0.5715245 0.3760929 0.5717967 0.37307 0.5724562 0.3718973 0.5739619 0.3723784 0.5724562 0.3718973 0.5734788 0.3569879 0.5756364 0.3569257 0.5713858 0.3431836 0.5717728 0.3566156 0.5694621 0.3565669 0.5712748 0.3712453 0.5694621 0.3715116 0.5694621 0.3565669 0.5715448 0.3735888 0.5715813 0.3738129 0.5715149 0.3738179 0.5715524 0.3762164 0.5714593 0.3762156 0.5715149 0.3738179 0.6338802 0.2385702 0.6338802 0.2549877 0.6324434 0.253983 0.6462025 0.2520745 0.6326507 0.2520114 0.6338533 0.2503233 0.6377856 0.2539302 0.6377856 0.2560029 0.6347754 0.2560029 0.6463253 0.2484781 0.6473649 0.2502712 0.6326507 0.2502712 0.6377802 0.2385702 0.6377802 0.2547687 0.6362846 0.253634 0.6326507 0.2464949 0.6473649 0.2464949 0.6463253 0.248288 0.6326507 0.2539302 0.6347233 0.2539302 0.6347233 0.2569404 0.6338454 0.2538203 0.6326507 0.2521266 0.6462026 0.2521266 0.6347233 0.2569925 0.6347233 0.2600026 0.6326507 0.2600026 0.2086639 0.3406621 0.2062992 0.3499407 0.2095863 0.3481179 0.6377856 0.2581276 0.6347754 0.2581276 0.6347754 0.256055 0.2370969 0.3086466 0.2272596 0.3168081 0.2434301 0.2498815 0.5714172 0.3729392 0.5709559 0.3734436 0.5694621 0.3715116 0.2086639 0.3406621 0.2113614 0.3318381 0.2116127 0.3320311 0.5715389 0.3736965 0.5715602 0.3735747 0.5715572 0.3735963 0.2370969 0.3086466 0.2171553 0.3153974 0.2159628 0.3187162 0.2095863 0.3481179 0.2159628 0.3187162 0.2156429 0.2960496 0.2434301 0.2498815 0.2272596 0.3168081 0.1941288 0.3904731 0.2156429 0.2960496 0.2434301 0.2498815 0.2116127 0.3320311 0.2159628 0.3187162 0.2095863 0.3481179 0.1941288 0.3904731 0.2062992 0.3499407 0.2026627 0.3660758 0.1941288 0.3904731 0.2370969 0.2654978 0.2434301 0.2498815 0.2156429 0.2960496 0.2076883 0.3451285 0.2116127 0.3320311 0.1941288 0.3904731 0.2125289 0.292536 0.2156429 0.2960496 0.2159628 0.3187162 0.01521432 0.402492 0.0163151 0.4036256 0.01629352 0.2057494 0.01629352 0.2057494 0.0163151 0.4036256 0.01741564 0.402492 0.01736265 0.2065999 0.01741564 0.402492 0.01521432 0.402492 0.8311486 0.3500947 0.8522711 0.3289722 0.882143 0.3289722 0.882143 0.3289722 0.9032656 0.3500948 0.8311486 0.3500947 0.9032656 0.3500948 0.9032656 0.3799666 0.8311486 0.3500947 0.9032656 0.3799666 0.8821429 0.4010893 0.8522711 0.4010893 0.8522711 0.4010893 0.8311484 0.3799666 0.8311486 0.3500947 0.8311485 0.2778834 0.8522711 0.2567607 0.882143 0.2567607 0.882143 0.2567607 0.9032656 0.2778834 0.8311485 0.2778834 0.9032656 0.2778834 0.9032656 0.3077552 0.8311485 0.2778834 0.9032656 0.3077552 0.882143 0.3288779 0.8522711 0.3288779 0.8522711 0.3288779 0.8311484 0.3077552 0.8311485 0.2778834 0.7635769 0.2644517 0.7371668 0.2883142 0.7305052 0.2852905 0.8224969 0.4246581 0.797026 0.3990359 0.7998812 0.3922328 0.7379425 0.4600496 0.7629824 0.4858585 0.7600784 0.4925801 0.8242384 0.2887164 0.8310542 0.286001 0.830069 0.3273248 0.7371668 0.2883142 0.7363067 0.3237249 0.7294973 0.3264598 0.8230152 0.4607215 0.8224969 0.4246581 0.8292866 0.4217888 0.7363939 0.4241664 0.7379425 0.4600496 0.7312451 0.4629253 0.8242384 0.2887164 0.7993776 0.2635752 0.8020942 0.2567607 0.768171 0.33502 0.7973961 0.3492718 0.7614307 0.3490381 0.7508686 0.3187832 0.7614307 0.3490381 0.7363067 0.3237249 0.7506496 0.2955662 0.7363067 0.3237249 0.7371668 0.2883142 0.7687417 0.2794052 0.7371668 0.2883142 0.7635769 0.2644517 0.7929149 0.2773944 0.7635769 0.2644517 0.7993776 0.2635752 0.8242384 0.2887164 0.7929149 0.2773944 0.7993776 0.2635752 0.8094934 0.3172559 0.8242384 0.2887164 0.8233446 0.3243646 0.7973961 0.3492718 0.8094934 0.3172559 0.8233446 0.3243646 0.7612029 0.3987498 0.758356 0.3919503 0.7998812 0.3922328 0.7973961 0.3492718 0.8233446 0.3243646 0.830069 0.3273248 0.7984219 0.4864597 0.8012863 0.4932394 0.7600784 0.4925801 0.7614307 0.3490381 0.7973961 0.3492718 0.800127 0.3561001 0.7993776 0.2635752 0.7635769 0.2644517 0.7609179 0.2577313 0.7612029 0.3987498 0.7363939 0.4241664 0.729497 0.4215609 0.8230152 0.4607215 0.8298584 0.4633879 0.8012863 0.4932394 0.7614307 0.3490381 0.7586018 0.3558175 0.7294973 0.3264598 0.2675097 0.9178326 0.2042657 0.9178326 0.2042883 0.9063804 0.2674687 0.894928 0.2042248 0.894928 0.2042883 0.8804529 0.2042883 0.9063804 0.2042657 0.894928 0.2675097 0.894928 0.2674687 0.8659778 0.2675322 0.8804529 0.2042883 0.8804529 0.2641695 0.9292853 0.2641695 0.9178326 0.2675322 0.9178326 0.2641695 0.9178326 0.2641695 0.9292852 0.2608067 0.9292852 0.1436184 0.8813686 0.1436184 0.877681 0.1436184 0.877681 0.1436184 0.8813686 0.1436184 0.877681 0.1175402 0.9087405 0.1436184 0.877681 0.1318521 0.9076971 0.1175402 0.9087405 0.331144 0.3700252 0.3855422 0.3233377 0.3852221 0.3703931 0.2713976 0.3237418 0.3174265 0.270844 0.3174265 0.3237418 0.2712085 0.323742 0.2251796 0.2708439 0.2712085 0.2708439 0.2249904 0.317062 0.1720921 0.3630908 0.1720921 0.3170621 0.376542 0.3219508 0.3159039 0.2691873 0.376542 0.269187 0.2251796 0.3239313 0.2780777 0.36996 0.2251796 0.3699601 0.278267 0.36996 0.331165 0.3239311 0.331165 0.36996 0.1720921 0.3168725 0.2249904 0.270844 0.2249904 0.3168728 0.331144 0.3700252 0.3314641 0.3229697 0.3855422 0.3233377 0.2713976 0.3237418 0.2713978 0.2708439 0.3174265 0.270844 0.2712085 0.323742 0.2251796 0.323742 0.2251796 0.2708439 0.2249904 0.317062 0.2249904 0.3630908 0.1720921 0.3630908 0.376542 0.3219508 0.3159039 0.3219508 0.3159039 0.2691873 0.2251796 0.3239313 0.2780777 0.3239311 0.2780777 0.36996 0.278267 0.36996 0.278267 0.3239311 0.331165 0.3239311 0.1720921 0.3168725 0.1720923 0.2708439 0.2249904 0.270844 0.7973961 0.3492718 0.7924041 0.3344472 0.8094934 0.3172559 0.8094934 0.3172559 0.8096147 0.2935273 0.8242384 0.2887164 0.8242384 0.2887164 0.8096147 0.2935273 0.7929149 0.2773944 0.7929149 0.2773944 0.7687417 0.2794052 0.7635769 0.2644517 0.7687417 0.2794052 0.7506496 0.2955662 0.7371668 0.2883142 0.7506496 0.2955662 0.7508686 0.3187832 0.7363067 0.3237249 0.7508686 0.3187832 0.768171 0.33502 0.7614307 0.3490381 0.768171 0.33502 0.7924041 0.3344472 0.7973961 0.3492718 0.7612029 0.3987498 0.797026 0.3990359 0.7895042 0.4142283 0.7363939 0.4241664 0.7612029 0.3987498 0.7666665 0.4145856 0.7379425 0.4600496 0.7363939 0.4241664 0.7515382 0.430963 0.7629824 0.4858585 0.7379425 0.4600496 0.7540354 0.4539951 0.7984219 0.4864597 0.7629824 0.4858585 0.7706969 0.4709212 0.8075793 0.4538117 0.8230152 0.4607215 0.7984219 0.4864597 0.8064463 0.4303656 0.8224969 0.4246581 0.8230152 0.4607215 0.7895042 0.4142283 0.797026 0.3990359 0.8224969 0.4246581 0.4639493 0.2905282 0.4682288 0.2977444 0.4666906 0.2980005 0.4715191 0.2905282 0.4694766 0.2985931 0.4682288 0.2977444 0.4768756 0.2958835 0.4696881 0.3000816 0.4694766 0.2985931 0.4768446 0.3034454 0.4687408 0.3012988 0.4696881 0.3000816 0.4687408 0.3012988 0.4639123 0.3087711 0.4672026 0.3015549 0.4672026 0.3015549 0.4585557 0.3034157 0.4659547 0.3007062 0.4659547 0.3007062 0.4585868 0.2958539 0.4657433 0.2992177 0.4657433 0.2992177 0.4639493 0.2905282 0.4666906 0.2980005 0.4639493 0.2905282 0.4715191 0.2905282 0.4682288 0.2977444 0.4715191 0.2905282 0.4768756 0.2958835 0.4694766 0.2985931 0.4768756 0.2958835 0.4768446 0.3034454 0.4696881 0.3000816 0.4768446 0.3034454 0.471482 0.3087711 0.4687408 0.3012988 0.4687408 0.3012988 0.471482 0.3087711 0.4639123 0.3087711 0.4672026 0.3015549 0.4639123 0.3087711 0.4585557 0.3034157 0.4659547 0.3007062 0.4585557 0.3034157 0.4585868 0.2958539 0.4657433 0.2992177 0.4585868 0.2958539 0.4639493 0.2905282 0.6471238 0.2275861 0.6471238 0.2428348 0.6449482 0.243736 0.6480681 0.2340625 0.6328195 0.2340625 0.6319183 0.2318868 0.6480681 0.2296069 0.6328195 0.2296069 0.6319183 0.2274312 0.6427204 0.2275861 0.644896 0.2266849 0.644896 0.243736 0.6480681 0.2362903 0.6328195 0.2362903 0.6319183 0.2341146 0.6480681 0.229659 0.6489693 0.2318347 0.6319183 0.2318347 0.6471238 0.259938 0.6449482 0.2608392 0.6449482 0.2437881 0.6480681 0.2363424 0.6489692 0.2385181 0.6319183 0.2385181 0.6323408 0.2157911 0.6365131 0.211619 0.6394633 0.2187412 0.6365131 0.2258636 0.6323409 0.2216914 0.6394633 0.2187412 0.6424133 0.2258636 0.6365131 0.2258636 0.6394633 0.2187412 0.6465855 0.2157911 0.6465855 0.2216914 0.6394633 0.2187412 0.6365131 0.211619 0.6424133 0.211619 0.6394633 0.2187412 0.6323409 0.2216914 0.6323408 0.2157911 0.6394633 0.2187412 0.6465855 0.2216914 0.6424133 0.2258636 0.6394633 0.2187412 0.6424133 0.211619 0.6465855 0.2157911 0.6394633 0.2187412</float_array>
          <technique_common>
            <accessor source="#caro_storehouse_crane-mesh-map-0-array" count="1185" stride="2">
              <param name="S" type="float"/>
              <param name="T" type="float"/>
            </accessor>
          </technique_common>
        </source>
        <vertices id="caro_storehouse_crane-mesh-vertices">
          <input semantic="POSITION" source="#caro_storehouse_crane-mesh-positions"/>
        </vertices>
        <lines count="1">
          <input semantic="VERTEX" source="#caro_storehouse_crane-mesh-vertices" offset="0"/>
          <p>28 26</p>
        </lines>
        <triangles count="395">
          <input semantic="VERTEX" source="#caro_storehouse_crane-mesh-vertices" offset="0"/>
          <input semantic="NORMAL" source="#caro_storehouse_crane-mesh-normals" offset="1"/>
          <input semantic="TEXCOORD" source="#caro_storehouse_crane-mesh-map-0" offset="2" set="0"/>
          <p>0 0 0 3 0 1 2 0 2 2 1 3 7 1 4 6 1 5 7 2 6 4 2 7 6 2 8 5 3 9 0 3 10 4 3 11 10 4 12 21 4 13 20 4 14 16 5 15 12 5 16 17 5 17 15 6 18 11 6 19 10 6 20 9 7 21 15 7 22 8 7 23 16 8 24 14 8 25 15 8 26 12 9 27 10 9 28 11 9 29 21 10 30 19 10 31 20 10 32 13 11 33 21 11 34 10 11 35 19 12 36 18 12 37 13 12 38 11 13 39 23 13 40 12 13 41 25 14 42 33 14 43 24 14 44 32 15 45 31 15 46 30 15 47 17 16 48 24 16 49 14 16 50 30 17 51 31 17 52 17 17 53 8 18 54 26 18 55 9 18 56 8 19 57 29 19 58 27 19 59 30 20 60 22 20 61 32 20 62 35 21 63 36 21 64 34 21 65 37 22 66 40 22 67 36 22 68 41 23 69 38 23 70 40 23 71 39 24 72 34 24 73 38 24 74 37 25 75 39 25 76 41 25 77 43 26 78 44 26 79 42 26 80 45 27 81 48 27 82 44 27 83 49 28 84 46 28 85 48 28 86 47 29 87 42 29 88 46 29 89 45 30 90 47 30 91 49 30 92 51 31 93 52 31 94 50 31 95 53 32 96 56 32 97 52 32 98 56 33 99 55 33 100 54 33 101 54 34 102 51 34 103 50 34 104 53 35 105 55 35 106 57 35 107 59 36 108 60 36 109 58 36 110 61 37 111 64 37 112 60 37 113 64 38 114 63 38 115 62 38 116 62 39 117 59 39 118 58 39 119 60 40 120 62 40 121 58 40 122 65 41 123 59 41 124 63 41 125 67 42 126 68 42 127 66 42 128 69 43 129 72 43 130 68 43 131 72 44 132 71 44 133 70 44 134 70 45 135 67 45 136 66 45 137 72 46 138 66 46 139 68 46 140 69 47 141 71 47 142 73 47 143 74 48 144 77 48 145 76 48 146 77 49 147 80 49 148 76 49 149 81 50 150 78 50 151 80 50 152 78 51 153 75 51 154 74 51 155 81 52 156 75 52 157 79 52 158 83 53 159 84 53 160 82 53 161 85 54 162 88 54 163 84 54 164 89 55 165 86 55 166 88 55 167 86 56 168 83 56 169 82 56 170 89 57 171 83 57 172 87 57 173 91 58 174 92 58 175 90 58 176 93 59 177 96 59 178 92 59 179 97 60 180 94 60 181 96 60 182 94 61 183 91 61 184 90 61 185 93 30 186 95 30 187 97 30 188 98 62 189 101 62 190 100 62 191 100 63 192 105 63 193 104 63 194 105 64 195 102 64 196 104 64 197 103 65 198 98 65 199 102 65 200 106 66 201 109 66 202 108 66 203 109 67 204 112 67 205 108 67 206 113 68 207 110 68 208 112 68 209 111 69 210 106 69 211 110 69 212 114 70 213 117 70 214 116 70 215 117 71 216 120 71 217 116 71 218 120 72 219 119 72 220 118 72 221 119 73 222 114 73 223 118 73 224 122 74 225 125 74 226 124 74 227 124 75 228 129 75 229 128 75 230 129 76 231 126 76 232 128 76 233 127 77 234 122 77 235 126 77 236 298 78 237 313 78 238 305 78 239 130 79 240 133 79 241 132 79 242 138 80 243 137 80 244 136 80 245 137 81 246 134 81 247 136 81 248 146 82 249 131 82 250 130 82 251 136 83 252 149 83 253 138 83 254 133 84 255 153 84 256 142 84 257 137 85 258 150 85 259 135 85 260 144 86 261 150 86 262 145 86 263 156 87 264 152 87 265 161 87 266 143 88 267 153 88 268 152 88 269 132 89 270 146 89 271 130 89 272 140 90 273 146 90 274 141 90 275 154 91 276 148 91 277 159 91 278 138 92 279 148 92 280 139 92 281 135 93 282 149 93 283 134 93 284 150 94 285 148 94 286 149 94 287 158 95 288 152 95 289 147 95 290 147 96 291 153 96 292 146 96 293 133 97 294 141 97 295 132 97 296 142 98 297 140 98 298 141 98 299 154 99 300 144 99 301 139 99 302 139 100 303 145 100 304 138 100 305 143 101 306 155 101 307 140 101 308 155 102 309 164 102 310 163 102 311 151 103 312 159 103 313 148 103 314 160 104 315 167 104 316 159 104 317 155 105 318 147 105 319 140 105 320 155 106 321 166 106 322 158 106 323 144 107 324 160 107 325 151 107 326 160 108 327 165 108 328 168 108 329 164 109 330 162 109 331 163 109 332 167 110 333 169 110 334 166 110 335 162 111 336 166 111 337 163 111 338 165 112 339 169 112 340 168 112 341 156 113 342 169 113 343 164 113 344 159 114 345 162 114 346 154 114 347 158 115 348 169 115 349 161 115 350 154 116 351 165 116 352 157 116 353 171 117 354 172 117 355 170 117 356 172 118 357 175 118 358 174 118 359 174 119 360 171 119 361 170 119 362 189 120 363 185 120 364 181 120 365 182 121 366 186 121 367 190 121 368 200 122 369 218 122 370 216 122 371 195 123 372 208 123 373 211 123 374 203 124 375 217 124 376 219 124 377 196 125 378 210 125 379 194 125 380 202 126 381 220 126 382 218 126 383 197 127 384 211 127 385 213 127 386 205 128 387 219 128 388 221 128 389 196 129 390 214 129 391 212 129 392 250 130 393 269 131 394 252 132 395 252 132 396 271 133 397 254 134 398 254 134 399 273 135 400 256 136 401 273 135 402 258 137 403 256 136 404 275 138 405 260 139 406 258 137 407 277 140 408 262 141 409 260 139 410 279 142 411 264 143 412 262 141 413 281 144 414 250 130 415 264 143 416 207 145 417 208 145 418 192 145 419 193 146 420 210 146 421 209 146 422 199 147 423 217 147 424 201 147 425 206 148 426 209 148 427 222 148 428 198 149 429 216 149 430 214 149 431 207 150 432 221 150 433 223 150 434 197 151 435 215 151 436 199 151 437 206 152 438 220 152 439 204 152 440 224 153 441 227 153 442 226 153 443 226 154 444 231 154 445 230 154 446 231 155 447 228 155 448 230 155 449 229 156 450 224 156 451 228 156 452 230 157 453 224 157 454 226 157 455 227 158 456 229 158 457 231 158 458 20 159 459 232 159 460 233 159 461 233 160 462 26 160 463 27 160 464 20 161 465 233 161 466 29 161 467 19 162 468 26 162 469 232 162 470 0 163 471 1 163 472 3 163 473 2 164 474 3 164 475 7 164 476 7 165 477 5 165 478 4 165 479 5 166 480 1 166 481 0 166 482 20 167 483 8 167 484 10 167 485 8 168 486 15 168 487 10 168 488 16 169 489 13 169 490 12 169 491 15 170 492 14 170 493 11 170 494 9 171 495 16 171 496 15 171 497 16 172 498 17 172 499 14 172 500 12 173 501 13 173 502 10 173 503 21 174 504 18 174 505 19 174 506 13 175 507 18 175 508 21 175 509 16 176 510 9 176 511 13 176 512 9 177 513 19 177 514 13 177 515 11 178 516 22 178 517 23 178 518 25 179 519 31 179 520 33 179 521 32 180 522 33 180 523 31 180 524 17 181 525 25 181 526 24 181 527 25 30 528 17 30 529 31 30 530 17 182 531 12 182 532 30 182 533 12 30 534 23 30 535 30 30 536 8 183 537 27 183 538 26 183 539 8 184 540 20 184 541 29 184 542 30 185 543 23 185 544 22 185 545 35 186 546 37 186 547 36 186 548 37 187 549 41 187 550 40 187 551 41 23 552 39 23 553 38 23 554 39 188 555 35 188 556 34 188 557 37 189 558 35 189 559 39 189 560 43 190 561 45 190 562 44 190 563 45 191 564 49 191 565 48 191 566 49 192 567 47 192 568 46 192 569 47 193 570 43 193 571 42 193 572 45 194 573 43 194 574 47 194 575 51 195 576 53 195 577 52 195 578 53 196 579 57 196 580 56 196 581 56 197 582 57 197 583 55 197 584 54 198 585 55 198 586 51 198 587 53 199 588 51 199 589 55 199 590 59 200 591 61 200 592 60 200 593 61 201 594 65 201 595 64 201 596 64 202 597 65 202 598 63 202 599 62 203 600 63 203 601 59 203 602 60 204 603 64 204 604 62 204 605 65 205 606 61 205 607 59 205 608 67 206 609 69 206 610 68 206 611 69 207 612 73 207 613 72 207 614 72 208 615 73 208 616 71 208 617 70 209 618 71 209 619 67 209 620 72 210 621 70 210 622 66 210 623 69 211 624 67 211 625 71 211 626 74 212 627 75 212 628 77 212 629 77 213 630 81 213 631 80 213 632 81 214 633 79 214 634 78 214 635 78 215 636 79 215 637 75 215 638 81 216 639 77 216 640 75 216 641 83 217 642 85 217 643 84 217 644 85 218 645 89 218 646 88 218 647 89 219 648 87 219 649 86 219 650 86 220 651 87 220 652 83 220 653 89 221 654 85 221 655 83 221 656 91 222 657 93 222 658 92 222 659 93 223 660 97 223 661 96 223 662 97 224 663 95 224 664 94 224 665 94 225 666 95 225 667 91 225 668 93 226 669 91 226 670 95 226 671 98 227 672 99 227 673 101 227 674 100 228 675 101 228 676 105 228 677 105 229 678 103 229 679 102 229 680 103 230 681 99 230 682 98 230 683 106 231 684 107 231 685 109 231 686 109 232 687 113 232 688 112 232 689 113 233 690 111 233 691 110 233 692 111 234 693 107 234 694 106 234 695 114 235 696 115 235 697 117 235 698 117 236 699 121 236 700 120 236 701 120 237 702 121 237 703 119 237 704 119 238 705 115 238 706 114 238 707 122 239 708 123 239 709 125 239 710 124 240 711 125 240 712 129 240 713 129 241 714 127 241 715 126 241 716 127 242 717 123 242 718 122 242 719 305 243 720 312 243 721 304 243 722 304 244 723 311 244 724 303 244 725 302 245 726 311 245 727 310 245 728 302 246 729 309 246 730 301 246 731 300 30 732 309 30 733 308 30 734 299 30 735 308 30 736 306 30 737 298 247 738 306 247 739 307 247 740 130 248 741 131 248 742 133 248 743 138 249 744 145 249 745 137 249 746 137 250 747 135 250 748 134 250 749 146 251 750 153 251 751 131 251 752 136 252 753 134 252 754 149 252 755 133 253 756 131 253 757 153 253 758 137 254 759 145 254 760 150 254 761 144 255 762 151 255 763 150 255 764 156 256 765 143 256 766 152 256 767 143 257 768 142 257 769 153 257 770 132 258 771 141 258 772 146 258 773 140 259 774 147 259 775 146 259 776 154 260 777 139 260 778 148 260 779 138 261 780 149 261 781 148 261 782 135 262 783 150 262 784 149 262 785 150 263 786 151 263 787 148 263 788 158 264 789 161 264 790 152 264 791 147 265 792 152 265 793 153 265 794 133 266 795 142 266 796 141 266 797 142 267 798 143 267 799 140 267 800 154 268 801 157 268 802 144 268 803 139 269 804 144 269 805 145 269 806 143 270 807 156 270 808 155 270 809 155 271 810 156 271 811 164 271 812 151 272 813 160 272 814 159 272 815 160 273 816 168 273 817 167 273 818 155 274 819 158 274 820 147 274 821 155 275 822 163 275 823 166 275 824 144 276 825 157 276 826 160 276 827 160 277 828 157 277 829 165 277 830 164 278 831 165 278 832 162 278 833 167 279 834 168 279 835 169 279 836 162 280 837 167 280 838 166 280 839 165 281 840 164 281 841 169 281 842 156 282 843 161 282 844 169 282 845 159 283 846 167 283 847 162 283 848 158 284 849 166 284 850 169 284 851 154 285 852 162 285 853 165 285 854 171 286 855 173 286 856 172 286 857 172 287 858 173 287 859 175 287 860 174 288 861 175 288 862 171 288 863 181 289 864 179 289 865 177 289 866 177 290 867 191 290 868 181 290 869 191 291 870 189 291 871 181 291 872 189 292 873 187 292 874 185 292 875 185 293 876 183 293 877 181 293 878 190 294 879 176 294 880 178 294 881 178 295 882 180 295 883 190 295 884 180 296 885 182 296 886 190 296 887 182 297 888 184 297 889 186 297 890 186 298 891 188 298 892 190 298 893 200 299 894 202 299 895 218 299 896 195 300 897 192 300 898 208 300 899 203 301 900 201 301 901 217 301 902 196 302 903 212 302 904 210 302 905 202 303 906 204 303 907 220 303 908 197 304 909 195 304 910 211 304 911 205 305 912 203 305 913 219 305 914 196 306 915 198 306 916 214 306 917 265 307 918 267 308 919 280 309 920 263 310 921 280 309 922 278 311 923 261 312 924 278 311 925 276 313 926 259 314 927 276 313 928 274 315 929 257 316 930 274 315 931 272 317 932 270 318 933 257 316 934 272 317 935 253 319 936 270 318 937 268 320 938 267 308 939 253 319 940 268 320 941 207 321 942 223 321 943 208 321 944 193 322 945 194 322 946 210 322 947 199 323 948 215 323 949 217 323 950 206 324 951 193 324 952 209 324 953 198 325 954 200 325 955 216 325 956 207 326 957 205 326 958 221 326 959 197 327 960 213 327 961 215 327 962 206 328 963 222 328 964 220 328 965 224 329 966 225 329 967 227 329 968 226 330 969 227 330 970 231 330 971 231 331 972 229 331 973 228 331 974 229 332 975 225 332 976 224 332 977 230 333 978 228 333 979 224 333 980 227 334 981 225 334 982 229 334 983 20 335 984 19 335 985 232 335 986 233 336 987 232 336 988 26 336 989 19 337 990 9 337 991 26 337 992 249 338 993 235 339 994 234 340 995 246 341 996 249 338 997 247 342 998 245 343 999 246 341 1000 247 342 1001 243 344 1002 244 345 1003 245 343 1004 240 346 1005 243 344 1006 241 347 1007 238 348 1008 241 347 1009 239 349 1010 237 350 1011 238 348 1012 239 349 1013 234 340 1014 236 351 1015 237 350 1016 249 338 1017 248 352 1018 235 339 1019 246 341 1020 248 352 1021 249 338 1022 245 343 1023 244 345 1024 246 341 1025 243 344 1026 242 353 1027 244 345 1028 240 346 1029 242 353 1030 243 344 1031 238 348 1032 240 346 1033 241 347 1034 237 350 1035 236 351 1036 238 348 1037 234 340 1038 235 339 1039 236 351 1040 267 308 1041 251 354 1042 253 319 1043 253 319 1044 255 355 1045 270 318 1046 270 318 1047 255 355 1048 257 316 1049 257 316 1050 259 314 1051 274 315 1052 259 314 1053 261 312 1054 276 313 1055 261 312 1056 263 310 1057 278 311 1058 263 310 1059 265 307 1060 280 309 1061 265 307 1062 251 354 1063 267 308 1064 281 144 1065 266 356 1066 250 130 1067 279 142 1068 281 144 1069 264 143 1070 277 140 1071 279 142 1072 262 141 1073 275 138 1074 277 140 1075 260 139 1076 273 135 1077 275 138 1078 258 137 1079 254 134 1080 271 133 1081 273 135 1082 252 132 1083 269 131 1084 271 133 1085 250 130 1086 266 356 1087 269 131 1088 291 357 1089 283 358 1090 282 359 1091 290 360 1092 284 361 1093 283 358 1094 292 362 1095 285 363 1096 284 361 1097 293 364 1098 286 365 1099 285 363 1100 286 365 1101 295 366 1102 287 367 1103 287 367 1104 296 368 1105 288 369 1106 288 369 1107 297 370 1108 289 371 1109 289 371 1110 291 357 1111 282 359 1112 291 357 1113 290 360 1114 283 358 1115 290 360 1116 292 362 1117 284 361 1118 292 362 1119 293 364 1120 285 363 1121 293 364 1122 294 372 1123 286 365 1124 286 365 1125 294 372 1126 295 366 1127 287 367 1128 295 366 1129 296 368 1130 288 369 1131 296 368 1132 297 370 1133 289 371 1134 297 370 1135 291 357 1136 298 373 1137 299 373 1138 306 373 1139 299 30 1140 300 30 1141 308 30 1142 300 374 1143 301 374 1144 309 374 1145 302 30 1146 310 30 1147 309 30 1148 302 375 1149 303 375 1150 311 375 1151 304 30 1152 312 30 1153 311 30 1154 305 30 1155 313 30 1156 312 30 1157 298 376 1158 307 376 1159 313 376 1160 320 377 1161 319 378 1162 322 379 1163 314 380 1164 321 381 1165 322 379 1166 315 382 1167 314 380 1168 322 379 1169 317 383 1170 316 384 1171 322 379 1172 319 378 1173 318 385 1174 322 379 1175 321 381 1176 320 377 1177 322 379 1178 316 384 1179 315 382 1180 322 379 1181 318 385 1182 317 383 1183 322 379 1184</p>
        </triangles>
      </mesh>
    </geometry>
  </library_geometries>
  <library_visual_scenes>
    <visual_scene id="Scene" name="Scene">
      <node id="caro_storehouse_crane" name="caro_storehouse_crane" type="NODE">
        <matrix sid="transform">1 0 0 0 0 1 0 0 0 0 1 0 0 0 0 1</matrix>
        <instance_geometry url="#caro_storehouse_crane-mesh" name="caro_storehouse_crane"/>
      </node>
    </visual_scene>
  </library_visual_scenes>
  <scene>
    <instance_visual_scene url="#Scene"/>
  </scene>
</COLLADA>